# xmcd
#
# Track frame offsets: 
#        150
#        12530
#        23697
#        36882
#        49934
#        61406
#        73599
#        86232
#        100370
#        110780
#        121652
#        133254
#        143854
#        154322
#        164957
#        175653
#        187407
#        199716
#        212019
#        225870
#        239718
#        255174
#        264912
#        276056
#        288955
#        300104
#        311060
#        327567
#        344435
#        355167
#        365843
#        376838
#
# Disc length: 5236 seconds
#
# Revision: 1
# Processed by: cddbd v1.5.2PL0 Copyright (c) Steve Scherf et al.
# Submitted via: ExactAudioCopy v1.0b3
#
DISCID=ed147220
DTITLE=Freddie King - Taking Care of Business [CD4]
DYEAR=2009
DGENRE=Blues
TTITLE0=Meet Me At the Station
TTITLE1=Full Time Love
TTITLE2=King-A-Ling
TTITLE3=I Love You More Every Day
TTITLE4=Teardrops On Your Letter
TTITLE5=Some Other Day, Some Other Time
TTITLE6=She's the One
TTITLE7=She's That Kind
TTITLE8=Man Hole
TTITLE9=Fish Fare
TTITLE10=Funny Bone
TTITLE11=Cloud Sailin' (Don't Move)
TTITLE12=The Sad Nite Owl
TTITLE13=Nickel Plated
TTITLE14=Freddy's Midnite Dream
TTITLE15=Girl From Kookamunga
TTITLE16=You've Got Me Licked
TTITLE17=Double Eyed Whammy
TTITLE18=Use What You've Got
TTITLE19=The Mojo
TTITLE20=Play It Cool
TTITLE21=Untitled Instrumental #1
TTITLE22=Untitled Instrumental #2
TTITLE23=Untitled Instrumental #3
TTITLE24=Hide Away
TTITLE25=Funky
TTITLE26=Blue Shadows
TTITLE27=Play It Cool
TTITLE28=That Will Never Do
TTITLE29=It's Too Late, She's Gone
TTITLE30=Sweet Thing
TTITLE31=Get Out of My Life Woman
EXTD=
EXTT0=
EXTT1=
EXTT2=
EXTT3=
EXTT4=
EXTT5=
EXTT6=
EXTT7=
EXTT8=
EXTT9=
EXTT10=
EXTT11=
EXTT12=
EXTT13=
EXTT14=
EXTT15=
EXTT16=
EXTT17=
EXTT18=
EXTT19=
EXTT20=
EXTT21=
EXTT22=
EXTT23=
EXTT24=
EXTT25=
EXTT26=
EXTT27=
EXTT28=
EXTT29=
EXTT30=
EXTT31=
PLAYORDER=
